<svg width="210" height="174" viewBox="0 0 210 174" fill="none" xmlns="http://www.w3.org/2000/svg">
<path d="M207.767 168.623L205.102 171.535C204.311 172.396 203.245 172.876 202.136 172.872L7.864 173C6.75361 173.001 5.68773 172.518 4.89807 171.655L2.22489 168.751C1.83741 168.328 1.52965 167.824 1.3194 167.269C1.10916 166.713 1.0006 166.117 1 165.515L1 8.6038C1.0006 8.00176 1.10916 7.40582 1.3194 6.85044C1.52965 6.29506 1.83741 5.79126 2.22489 5.36815L4.89807 2.46458C5.68773 1.60173 6.75361 1.11825 7.864 1.11923L202.136 1.00003C203.245 0.995853 204.311 1.47635 205.102 2.33686L207.767 5.24894C208.157 5.67077 208.467 6.17414 208.678 6.72969C208.89 7.28523 208.999 7.8818 209 8.48457V165.396C208.999 165.998 208.889 166.593 208.677 167.147C208.466 167.701 208.156 168.203 207.767 168.623V168.623Z" stroke="#3E3E3E" stroke-width="2" stroke-miterlimit="10"/>
<path d="M2.49451 166.733L2.49451 9.27654C2.49511 8.6745 2.60367 8.07857 2.81391 7.52319C3.02416 6.96781 3.33191 6.464 3.71939 6.04089L5.51434 4.09099C6.304 3.22815 7.36988 2.74466 8.48027 2.74565L201.52 2.62644C202.628 2.62775 203.692 3.10742 204.486 3.96326L206.28 5.92168C206.669 6.34422 206.977 6.84792 207.187 7.40343C207.397 7.95894 207.506 8.55515 207.505 9.15733V164.715C207.506 165.317 207.398 165.914 207.188 166.469C206.977 167.025 206.669 167.529 206.28 167.951L204.486 169.901C203.695 170.76 202.629 171.241 201.52 171.238L8.48027 171.365C7.36988 171.366 6.304 170.883 5.51434 170.02L2.49451 166.725V166.733Z" fill="#3E3E3E"/>
<path d="M195.666 36.6671H13.3339C12.5972 36.6671 12 37.7675 12 39.1248V127.082C12 128.439 12.5972 129.539 13.3339 129.539H195.666C196.403 129.539 197 128.439 197 127.082V39.1248C197 37.7675 196.403 36.6671 195.666 36.6671Z" fill="#1D1D1D"/>
<path d="M195.666 116.075H13.3339C12.5972 116.075 12 116.597 12 117.241V158.966C12 159.61 12.5972 160.132 13.3339 160.132H195.666C196.403 160.132 197 159.61 197 158.966V117.241C197 116.597 196.403 116.075 195.666 116.075Z" fill="#1D1D1D"/>
<path d="M155.954 13.0001H13.0455C12.4681 13.0001 12 13.2357 12 13.5263V32.3592C12 32.6498 12.4681 32.8854 13.0455 32.8854H155.954C156.532 32.8854 157 32.6498 157 32.3592V13.5263C157 13.2357 156.532 13.0001 155.954 13.0001Z" fill="#1D1D1D"/>
</svg>